<?xml version="1.0" encoding="UTF-8" standalone="no"?>
<!DOCTYPE svg PUBLIC "-//W3C//DTD SVG 1.1//EN" "http://www.w3.org/Graphics/SVG/1.1/DTD/svg11.dtd">
<svg width="100%" height="100%" viewBox="0 0 3508 2481" version="1.1" xmlns="http://www.w3.org/2000/svg" xmlns:xlink="http://www.w3.org/1999/xlink" xml:space="preserve" xmlns:serif="http://www.serif.com/" style="fill-rule:evenodd;clip-rule:evenodd;stroke-linejoin:round;stroke-miterlimit:2;">
    <g transform="matrix(12.2263,0,0,12.2263,-14370.8,-14351.9)">
        <path d="M1236.54,1279.76L1221.99,1279.76L1217.3,1288.35L1211.83,1288.35L1233.7,1250.85L1237.09,1250.85C1237.11,1250.97 1237.13,1251.09 1237.14,1251.2C1237.13,1251.09 1237.11,1250.97 1237.09,1250.85L1239.95,1250.85L1261.83,1288.35L1256.36,1288.35L1251.67,1279.76L1236.54,1279.76M1236.64,1275.85L1249.33,1275.85L1236.83,1253.98L1224.33,1275.85L1236.64,1275.85" style="fill:rgb(255,157,32);fill-rule:nonzero;"/>
        <path d="M1266.61,1288.35L1266.61,1260.23L1271.3,1260.23L1271.3,1263.72C1272,1262.78 1272.84,1261.99 1273.82,1261.35C1274.79,1260.72 1276.04,1260.24 1277.56,1259.92C1279.09,1259.61 1281.03,1259.45 1283.41,1259.45C1286.36,1259.45 1288.76,1259.85 1290.61,1260.64C1292.47,1261.44 1293.84,1262.82 1294.71,1264.77C1295.51,1263.53 1296.47,1262.52 1297.6,1261.73C1298.72,1260.94 1300.13,1260.36 1301.83,1260C1303.53,1259.63 1305.63,1259.45 1308.12,1259.45C1311.08,1259.45 1313.49,1259.85 1315.34,1260.65C1317.2,1261.46 1318.56,1262.83 1319.43,1264.77C1320.3,1266.71 1320.74,1269.36 1320.74,1272.73L1320.74,1288.35L1316.05,1288.35L1316.05,1272.73C1316.05,1270.16 1315.78,1268.2 1315.25,1266.86C1314.71,1265.51 1313.82,1264.59 1312.57,1264.1C1311.33,1263.6 1309.65,1263.35 1307.53,1263.35C1303.38,1263.35 1300.42,1263.96 1298.66,1265.18C1296.89,1266.4 1296.01,1268.4 1296.01,1271.17L1296.01,1271.14C1296.03,1271.65 1296.03,1272.17 1296.03,1272.73L1296.03,1288.35L1291.35,1288.35L1291.35,1272.73C1291.35,1270.16 1291.08,1268.2 1290.54,1266.86C1290,1265.51 1289.11,1264.59 1287.87,1264.1C1286.62,1263.6 1284.94,1263.35 1282.83,1263.35C1278.67,1263.35 1275.72,1263.96 1273.95,1265.18C1272.18,1266.4 1271.3,1268.4 1271.3,1271.17L1271.3,1288.35L1266.61,1288.35Z" style="fill-rule:nonzero;"/>
        <path d="M1344.23,1288.89C1341.21,1288.89 1338.67,1288.66 1336.6,1288.21C1334.52,1287.75 1332.89,1286.73 1331.7,1285.13L1331.7,1288.35L1327.01,1288.35L1327.01,1250.85L1331.7,1250.85L1331.7,1263.43C1332.89,1261.85 1334.52,1260.83 1336.6,1260.38C1338.67,1259.92 1341.21,1259.69 1344.23,1259.69C1347.38,1259.69 1350.06,1259.85 1352.25,1260.18C1354.43,1260.51 1356.2,1261.16 1357.56,1262.13C1358.91,1263.11 1359.89,1264.56 1360.51,1266.48C1361.13,1268.4 1361.44,1270.95 1361.44,1274.14C1361.44,1277.43 1361.13,1280.06 1360.51,1282.03C1359.89,1284 1358.91,1285.48 1357.56,1286.46C1356.2,1287.45 1354.43,1288.1 1352.25,1288.41C1350.06,1288.73 1347.38,1288.89 1344.23,1288.89ZM1356.75,1274.14C1356.75,1271.82 1356.63,1269.95 1356.4,1268.55C1356.16,1267.15 1355.64,1266.1 1354.85,1265.39C1354.05,1264.68 1352.81,1264.21 1351.12,1263.96C1349.44,1263.72 1347.14,1263.6 1344.23,1263.6C1341.57,1263.6 1339.42,1263.72 1337.78,1263.96C1336.14,1264.21 1334.88,1264.68 1334,1265.39C1333.12,1266.1 1332.52,1267.15 1332.19,1268.55C1331.86,1269.95 1331.7,1271.82 1331.7,1274.14C1331.7,1276.55 1331.86,1278.48 1332.19,1279.93C1332.52,1281.38 1333.12,1282.46 1334,1283.19C1334.88,1283.91 1336.14,1284.39 1337.78,1284.63C1339.42,1284.87 1341.57,1284.98 1344.23,1284.98C1347.14,1284.98 1349.44,1284.87 1351.12,1284.63C1352.81,1284.39 1354.05,1283.91 1354.85,1283.19C1355.64,1282.46 1356.16,1281.38 1356.4,1279.93C1356.63,1278.48 1356.75,1276.55 1356.75,1274.14Z" style="fill-rule:nonzero;"/>
        <path d="M1399.11,1280C1399.11,1282.1 1398.8,1283.76 1398.17,1284.96C1397.54,1286.16 1396.59,1287.04 1395.3,1287.6C1394.01,1288.15 1392.38,1288.5 1390.38,1288.66C1388.39,1288.81 1386.02,1288.89 1383.26,1288.89C1380.12,1288.89 1377.46,1288.73 1375.27,1288.41C1373.08,1288.1 1371.31,1287.45 1369.97,1286.46C1368.63,1285.48 1367.65,1284 1367.04,1282.03C1366.43,1280.06 1366.12,1277.43 1366.12,1274.14C1366.12,1270.95 1366.42,1268.4 1367.02,1266.48C1367.61,1264.56 1368.58,1263.11 1369.91,1262.13C1371.24,1261.16 1373,1260.51 1375.17,1260.18C1377.34,1259.85 1380,1259.69 1383.14,1259.69C1386.74,1259.69 1389.72,1259.94 1392.08,1260.45C1394.44,1260.95 1396.2,1261.91 1397.36,1263.33C1398.53,1264.75 1399.11,1266.82 1399.11,1269.55L1399.11,1275.59L1370.84,1275.59C1370.85,1277.67 1371,1279.34 1371.28,1280.59C1371.55,1281.84 1372.11,1282.79 1372.94,1283.42C1373.77,1284.06 1375.01,1284.48 1376.66,1284.68C1378.31,1284.88 1380.51,1284.98 1383.26,1284.98C1385.74,1284.98 1387.74,1284.93 1389.26,1284.84C1390.78,1284.74 1391.93,1284.52 1392.73,1284.19C1393.51,1283.86 1394.05,1283.36 1394.32,1282.69C1394.6,1282.02 1394.74,1281.13 1394.74,1280L1399.11,1280ZM1383.14,1263.6C1380.49,1263.6 1378.35,1263.69 1376.73,1263.89C1375.11,1264.09 1373.88,1264.46 1373.04,1265.03C1372.19,1265.59 1371.62,1266.42 1371.31,1267.53C1371.01,1268.63 1370.85,1270.09 1370.84,1271.9L1394.62,1271.9L1394.62,1269.55C1394.62,1268.38 1394.48,1267.41 1394.21,1266.64C1393.94,1265.86 1393.42,1265.25 1392.64,1264.81C1391.86,1264.36 1390.71,1264.05 1389.18,1263.87C1387.66,1263.69 1385.65,1263.6 1383.14,1263.6Z" style="fill-rule:nonzero;"/>
        <path d="M1405.65,1288.35L1405.65,1260.23L1410.34,1260.23L1410.34,1264.11C1410.86,1263.28 1411.38,1262.59 1411.91,1262.04C1412.44,1261.48 1413.13,1261.04 1413.99,1260.72C1414.84,1260.39 1416,1260.16 1417.47,1260.02C1418.93,1259.88 1420.86,1259.81 1423.25,1259.81L1423.25,1263.74C1420.03,1263.74 1417.54,1263.86 1415.77,1264.09C1414.01,1264.31 1412.74,1264.7 1411.98,1265.25C1411.21,1265.79 1410.75,1266.54 1410.58,1267.5C1410.42,1268.46 1410.34,1269.68 1410.34,1271.17L1410.34,1288.35L1405.65,1288.35Z" style="fill-rule:nonzero;"/>
    </g>
</svg>
